<svg xmlns="http://www.w3.org/2000/svg" xmlns:xlink="http://www.w3.org/1999/xlink" width="75" height="75" viewBox="0 0 75 75">
    <defs>
        <path id="a" d="M0 38.342h47.834V0H0z"/>
    </defs>
    <g fill="none" fill-rule="evenodd">
        <circle cx="37.5" cy="37.5" r="37.5" fill="#390F92" opacity=".705"/>
        <g transform="translate(14 23)">
            <path fill="#FE7338" d="M40.78 13.837a.75.75 0 0 1 0 1.5H26.93a.75.75 0 0 1 0-1.5h13.85zM36.986 16.884H26.93a.75.75 0 0 0 0 1.5h10.056a.75.75 0 0 0 0-1.5M28.727 10.996c-.45 0-.966-.183-1.44-.54l-.45.682c.55.433 1.241.658 1.866.658.916 0 1.633-.458 1.633-1.383 0-.808-.726-1.1-1.366-1.3l-.084-.024c-.483-.158-.909-.292-.909-.592 0-.275.226-.458.617-.458.366 0 .817.158 1.241.416l.4-.716a3.052 3.052 0 0 0-1.616-.5c-.875 0-1.567.508-1.567 1.341 0 .858.727 1.125 1.375 1.316.026.01.05.017.076.026.483.141.909.258.909.583 0 .308-.25.491-.684.491M32.86 9.696c.391 0 .75.075 1.008.176v.25c0 .55-.5.924-1.167.924-.475 0-.85-.233-.85-.65 0-.44.375-.7 1.008-.7m-.44 2.108c.666 0 1.124-.275 1.423-.633v.542h1V9.105c0-1.175-.633-1.858-1.933-1.858-.716 0-1.192.15-1.674.367l.274.808c.401-.166.767-.275 1.258-.275.7 0 1.083.333 1.083.942v.083a3.674 3.674 0 0 0-1.216-.184c-1.024 0-1.783.467-1.783 1.441 0 .901.734 1.375 1.567 1.375"/>
            <mask id="b" fill="#fff">
                <use xlink:href="#a"/>
            </mask>
            <path fill="#FE7338" d="M35.89 11.713h1.008V5.63H35.89zM39.905 8.047c.667 0 1.05.509 1.117 1.158h-2.258c.092-.682.525-1.158 1.141-1.158m.117 3.766c.808 0 1.383-.325 1.8-.825l-.592-.525c-.349.342-.7.525-1.19.525-.65 0-1.159-.4-1.268-1.116h3.233c.008-.051.016-.217.016-.283 0-1.267-.708-2.366-2.107-2.366-1.258 0-2.15 1.033-2.15 2.29 0 1.375.984 2.3 2.258 2.3" mask="url(#b)"/>
            <path fill="#FE7338" d="M45.834 24.857h-6.566a.983.983 0 0 0-.772.39l-4.587-3.997a.75.75 0 0 0-1.243.578l.052 3.03H20.976L26.264 2h19.57v22.857zm-7.058 5.646a.747.747 0 0 0-.503 1.044l2.233 4.798-.536.25-2.234-4.798a.748.748 0 0 0-1.124-.288l-2.25 1.655-.119-6.897a.989.989 0 0 0 .092-.41c0-.157-.043-.3-.107-.432l-.033-1.937 7.296 6.356-2.715.66zM2 2h22.725l-5.288 22.857H2V2zm44.834-2H1a1 1 0 0 0-1 1v24.857a1 1 0 0 0 1 1h31.753l.134 7.783a.75.75 0 0 0 1.195.592l2.681-1.972 2.164 4.648a.75.75 0 0 0 .996.363l1.896-.883a.75.75 0 0 0 .364-.996l-2.164-4.647 3.235-.784a.75.75 0 0 0 .316-1.294l-3.225-2.81h6.489a1 1 0 0 0 1-1V1a1 1 0 0 0-1-1z" mask="url(#b)"/>
            <path fill="#FE7338" d="M16.924 18.216l-5.818 2.38v-8.541l5.818-2.38v8.54zM6.45 9.932l1.287.826 1.87 1.203v8.378L6.45 18.31V9.93zm6.491-3.527l3.116 2.004-5.623 2.3-3.116-2.003 5.623-2.301zm5.476 2.123a.732.732 0 0 0-.078-.314c-.005-.01-.01-.016-.016-.025a.747.747 0 0 0-.219-.243c-.005-.003-.007-.008-.01-.011l-.006-.002-.007-.006-4.657-2.994a.748.748 0 0 0-.69-.064L5.415 7.863c-.019.008-.034.022-.053.03-.007.005-.015.003-.022.007-.008.004-.012.014-.02.019a.74.74 0 0 0-.25.24l-.023.043a.755.755 0 0 0-.095.287c0 .017.003.033.003.05 0 .007-.006.012-.006.019V18.72c0 .255.13.493.345.63l4.644 2.986.012.008c.036.023.075.035.113.05.027.013.053.03.081.038a.76.76 0 0 0 .496-.025l7.318-2.993a.749.749 0 0 0 .466-.694V8.558c0-.011-.007-.02-.008-.03z" mask="url(#b)"/>
        </g>
    </g>
</svg>
