<svg xmlns="http://www.w3.org/2000/svg" width="75" height="75" viewBox="0 0 75 75">
    <g fill="none" fill-rule="evenodd">
        <circle cx="37.5" cy="37.5" r="37.5" fill="#390F92" opacity=".705"/>
        <path fill="#FE7338" d="M25.337 43.617c.685 0 1.243.558 1.243 1.243 0 .686-.558 1.243-1.243 1.243a1.244 1.244 0 0 1-1.243-1.243c0-.685.558-1.243 1.243-1.243m9.356-12.069a1.243 1.243 0 0 1 0 2.485 1.243 1.243 0 0 1 0-2.485m9.357 4.19c.685 0 1.243.558 1.243 1.242 0 .686-.558 1.243-1.243 1.243a1.244 1.244 0 0 1-1.243-1.243c0-.684.558-1.242 1.243-1.242m9.356-10.427c.685 0 1.243.558 1.243 1.243s-.558 1.243-1.243 1.243a1.244 1.244 0 0 1 0-2.486m4.844 25.186H18.594a.595.595 0 0 1-.594-.595v-8.271l1.548 1.964c.833 1.057 1.941 1.764 3.177 2.057a2.737 2.737 0 0 0 2.612 1.951 2.746 2.746 0 0 0 2.743-2.743c0-.243-.042-.474-.102-.698a6.197 6.197 0 0 0 1.357-2.01l2.524-6.008c.225-.534.541-1 .915-1.399a2.734 2.734 0 0 0 1.919.788 2.74 2.74 0 0 0 2.578-1.839 4.32 4.32 0 0 1 1.97 1.563 5.894 5.894 0 0 0 2.078 1.844 2.74 2.74 0 0 0 2.731 2.622 2.746 2.746 0 0 0 2.743-2.743c0-.012-.004-.023-.004-.035a5.934 5.934 0 0 0 1.905-1.846l3.899-5.94c.259.082.528.138.813.138a2.746 2.746 0 0 0 2.743-2.743 2.746 2.746 0 0 0-2.743-2.743 2.746 2.746 0 0 0-2.742 2.743c0 .683.26 1.302.675 1.782l-3.899 5.941c-.307.469-.69.855-1.12 1.168a2.74 2.74 0 0 0-2.27-1.207c-.998 0-1.864.541-2.344 1.34a4.425 4.425 0 0 1-1.237-1.183c-.791-1.128-1.88-1.906-3.122-2.264a2.741 2.741 0 0 0-2.654-2.083 2.745 2.745 0 0 0-2.742 2.742c0 .2.024.394.065.583a6.135 6.135 0 0 0-1.539 2.19l-2.525 6.007a4.75 4.75 0 0 1-.787 1.26 2.722 2.722 0 0 0-1.828-.713 2.738 2.738 0 0 0-2.618 1.968 4.275 4.275 0 0 1-1.993-1.418L18 39.209V23a1 1 0 1 0-2 0v26.902a2.597 2.597 0 0 0 2.594 2.595H58.25a1 1 0 1 0 0-2"/>
    </g>
</svg>
