<svg xmlns="http://www.w3.org/2000/svg" width="75" height="75" viewBox="0 0 75 75">
    <g fill="none" fill-rule="evenodd">
        <circle cx="37.5" cy="37.5" r="37.5" fill="#390F92" opacity=".705"/>
        <g fill="#FE7338">
            <path d="M31.215 36.13h-9.942a.75.75 0 0 0 0 1.5h9.942a.75.75 0 0 0 0-1.5M31.215 41.068h-9.942a.75.75 0 0 0 0 1.5h9.942a.75.75 0 0 0 0-1.5M31.215 46.007h-9.942a.75.75 0 0 0 0 1.5h9.942a.75.75 0 0 0 0-1.5M52.935 46.007H36.273a.75.75 0 0 0 0 1.5h16.662a.75.75 0 0 0 0-1.5M38.424 37.985l1.051 2.431h-2.093l1.042-2.43zm-1.433 3.377h2.874l.617 1.468h1.13l-2.675-6.12h-.99l-2.674 6.12h1.093l.625-1.468zM46.812 39.791c0 1.207-.833 2.066-2.109 2.066h-1.199v-4.132h1.199c1.276 0 2.109.877 2.109 2.066zm-4.376-3.038v6.077h2.267c1.91 0 3.229-1.328 3.229-3.039 0-1.728-1.319-3.038-3.229-3.038h-2.267zM51.11 41.424l-1.831-4.671h-1.181l2.527 6.12h.937l2.527-6.12h-1.155z"/>
            <path d="M55.468 52.34H19.271c-.7 0-1.27-.57-1.27-1.27V26.804h38.738V51.07c0 .7-.57 1.27-1.27 1.27M19.27 21h36.197c.701 0 1.271.57 1.271 1.27v3.034H18V22.27c0-.701.57-1.271 1.271-1.271m36.197-2H19.271a3.274 3.274 0 0 0-3.27 3.27v28.8a3.274 3.274 0 0 0 3.27 3.27h36.197a3.274 3.274 0 0 0 3.271-3.27v-28.8A3.274 3.274 0 0 0 55.47 19"/>
            <path d="M21.273 32.379h31.662a1 1 0 1 0 0-2H21.273a1 1 0 1 0 0 2"/>
        </g>
    </g>
</svg>
