<svg xmlns="http://www.w3.org/2000/svg" xmlns:xlink="http://www.w3.org/1999/xlink" width="75" height="75" viewBox="0 0 75 75">
    <defs>
        <path id="a" d="M0 37h37.221V.982H.001z"/>
    </defs>
    <g fill="none" fill-rule="evenodd">
        <circle cx="37.5" cy="37.5" r="37.5" fill="#390F92" opacity=".705"/>
        <g transform="translate(19 16.018)">
            <mask id="b" fill="#fff">
                <use xlink:href="#a"/>
            </mask>
            <path fill="#FE7338" d="M33.69 24.372h-1.445a.75.75 0 0 0 0 1.5h.206c1.12 0 2.032.912 2.032 2.032s-.912 2.032-2.032 2.032h-1.24a.75.75 0 1 0 0 1.5h.076c1.12 0 2.031.912 2.031 2.032s-.91 2.032-2.03 2.032H16.508c-1.61 0-3.303-1.34-3.968-1.926.097-.317.165-.647.165-.995V18.21c1.473-1.61 5.984-6.827 5.984-10.33 0-1.37-.082-3.447-.115-4.213.524-.595 1.242-1.184 1.558-1.184 1.32 0 2.264.382 2.89 1.167 1.287 1.62 1.342 5.043.16 10.178a.749.749 0 0 0 .731.918h9.052c1.12 0 2.033.912 2.033 2.032s-.913 2.032-2.033 2.032a.75.75 0 1 0 0 1.5h.724c1.12 0 2.031.912 2.031 2.032s-.91 2.031-2.03 2.031zM10.706 32.58c0 .788-.642 1.43-1.43 1.43H3.43A1.431 1.431 0 0 1 2 32.58V18.182c0-.789.641-1.43 1.43-1.43h5.846c.788 0 1.43.641 1.43 1.43V32.58zm26.515-10.238a3.518 3.518 0 0 0-1.78-3.049 3.518 3.518 0 0 0 1.058-2.515 3.537 3.537 0 0 0-3.533-3.532H24.846c1.086-5.169.871-8.618-.65-10.53-.915-1.15-2.282-1.733-4.063-1.733-1.28 0-2.645 1.63-2.906 1.957a.749.749 0 0 0-.163.502c.001.028.126 2.802.126 4.438 0 2.4-2.976 6.332-4.953 8.604a3.417 3.417 0 0 0-2.96-1.73H3.428A3.433 3.433 0 0 0 0 18.182v14.396a3.433 3.433 0 0 0 3.43 3.43h5.846c.993 0 1.881-.43 2.508-1.107.93.775 2.794 2.098 4.725 2.098H31.287a3.536 3.536 0 0 0 3.531-3.532c0-.907-.353-1.726-.916-2.352a3.53 3.53 0 0 0 2.081-3.212c0-.893-.345-1.7-.894-2.324a3.533 3.533 0 0 0 2.132-3.239z" mask="url(#b)"/>
        </g>
        <path fill="#FE7338" d="M25.353 45.771a.932.932 0 1 0 0 1.864.932.932 0 0 0 0-1.864"/>
    </g>
</svg>
