<svg xmlns="http://www.w3.org/2000/svg" xmlns:xlink="http://www.w3.org/1999/xlink" width="75" height="75" viewBox="0 0 75 75">
    <defs>
        <path id="a" d="M2.865.051v2h-2v-2h2z"/>
    </defs>
    <g fill="none" fill-rule="evenodd">
        <circle cx="37.5" cy="37.5" r="37.5" fill="#390F92" opacity=".705"/>
        <path fill="#FE7338" d="M27.74 17.442l-4.75-1.41a.75.75 0 0 0-.428 1.436l2.953.877C19.163 21.248 15 27.875 15 35.385c0 7.911 4.705 14.961 11.708 17.543a.75.75 0 0 0 .519-1.408C20.811 49.156 16.5 42.671 16.5 35.385c0-6.986 3.888-13.14 9.808-15.758l-.912 3.07a.75.75 0 0 0 1.438.427l1.41-4.75a.75.75 0 0 0-.505-.933M33.67 45.612h18.02a.75.75 0 0 0 0-1.5H33.67a.75.75 0 0 0 0 1.5M58.864 39.148H33.67a1 1 0 1 0 0 2h25.194a1 1 0 1 0 0-2M33.67 34.117h18.02a.75.75 0 0 0 0-1.5H33.67a.75.75 0 0 0 0 1.5M58.864 27.653H33.67a1 1 0 1 0 0 2h25.194a1 1 0 1 0 0-2M51.69 55.606H33.67a.75.75 0 0 0 0 1.5h18.02a.75.75 0 0 0 0-1.5M58.864 50.642H33.67a1 1 0 1 0 0 2h25.194a1 1 0 1 0 0-2M34.195 21.337c-.27-.27-.78-.27-1.06 0-.07.07-.12.16-.16.25a.713.713 0 0 0-.05.29c0 .2.07.38.21.53.08.071.16.12.25.16.09.041.18.06.28.06.2 0 .39-.08.53-.22.15-.15.22-.33.22-.53 0-.1-.01-.199-.05-.29a.852.852 0 0 0-.17-.25M48.085 22.627a.749.749 0 1 0 .002-1.502.749.749 0 0 0-.002 1.502M40.876 22.627c.42 0 .75-.34.75-.75 0-.42-.33-.75-.75-.75a.749.749 0 1 0 0 1.5M44.485 22.627a.749.749 0 1 0 0-1.5c-.42 0-.75.33-.75.75 0 .41.33.75.75.75M37.275 22.627a.749.749 0 1 0 0-1.5c-.42 0-.75.33-.75.75 0 .41.33.75.75.75M50.996 21.587a.72.72 0 0 0-.06.29c0 .2.08.38.22.53.07.071.16.12.25.16.09.041.18.06.28.06.2 0 .39-.08.53-.22.15-.15.22-.33.22-.53 0-.1-.01-.199-.05-.29a.852.852 0 0 0-.17-.25c-.27-.27-.78-.27-1.06 0-.07.07-.12.16-.16.25M33.285 18.087c.12.051.25.07.39.07.13 0 .26-.019.38-.07.12-.06.23-.13.32-.22a.986.986 0 0 0 .29-.71.99.99 0 0 0-.07-.38 1.19 1.19 0 0 0-.22-.33.999.999 0 0 0-1.09-.21c-.12.05-.23.121-.32.21-.09.1-.17.21-.22.33a.99.99 0 0 0-.07.38c0 .271.1.521.29.71.09.09.2.16.32.22M54.666 18.157c.55 0 1-.45 1-1s-.45-1-1-1-1 .45-1 1 .45 1 1 1M50.465 18.157c.55 0 1-.45 1-1s-.45-1-1-1-1 .45-1 1 .45 1 1 1M42.065 18.157c.56 0 1-.45 1-1s-.44-1-1-1c-.55 0-1 .45-1 1s.45 1 1 1M46.266 18.157c.55 0 1-.45 1-1s-.45-1-1-1-1 .45-1 1 .45 1 1 1M37.865 18.157c.56 0 1-.45 1-1s-.44-1-1-1c-.55 0-1 .45-1 1s.45 1 1 1"/>
        <g transform="translate(57 16.107)">
            <mask id="b" fill="#fff">
                <use xlink:href="#a"/>
            </mask>
            <path fill="#FE7338" d="M1.155 1.76c.19.19.44.29.71.29.13 0 .26-.018.38-.07.12-.06.23-.13.33-.22.09-.1.16-.21.21-.33.05-.12.08-.25.08-.38s-.03-.26-.08-.38-.12-.23-.21-.33c-.1-.09-.21-.16-.33-.21a.956.956 0 0 0-.76 0c-.06.02-.12.05-.18.09l-.15.12c-.09.1-.16.21-.21.33-.06.12-.08.25-.08.38s.02.26.07.38c.06.12.13.23.22.33" mask="url(#b)"/>
        </g>
    </g>
</svg>
