<svg xmlns="http://www.w3.org/2000/svg" xmlns:xlink="http://www.w3.org/1999/xlink" width="75" height="75" viewBox="0 0 75 75">
    <defs>
        <path id="a" d="M0 47V.666h46.333V47z"/>
    </defs>
    <g fill="none" fill-rule="evenodd">
        <circle cx="37.5" cy="37.5" r="37.5" fill="#390F92" opacity=".705"/>
        <g transform="translate(14 13.334)">
            <mask id="b" fill="#fff">
                <use xlink:href="#a"/>
            </mask>
            <path fill="#FE7338" d="M23.166.666a1 1 0 1 0 0 2c11.671 0 21.168 9.495 21.168 21.167C44.334 35.505 34.837 45 23.166 45 11.496 45 2 35.505 2 23.833c0-4.896 1.656-9.535 4.694-13.287l.236 2.731a1 1 0 0 0 1.992-.172l-.436-5.066c-.005-.067-.036-.126-.055-.189-.008-.028-.011-.057-.023-.084a.984.984 0 0 0-.274-.406.983.983 0 0 0-.729-.231l-5.067.435a1 1 0 0 0-.91 1.082c.048.55.53.964 1.082.911l2.598-.224A22.982 22.982 0 0 0 0 23.833C0 36.607 10.393 47 23.166 47c12.774 0 23.168-10.393 23.168-23.167C46.334 11.059 35.94.666 23.166.666" mask="url(#b)"/>
        </g>
        <path fill="#FE7338" d="M41.96 44.483l-15.243-4.666v-3.93l15.243-4.665v13.261zm-10.526 1.316c-1.689-.393-2.753-2.038-2.469-3.726l6.183 1.893a3.272 3.272 0 0 1-3.714 1.833zm-5.717-3.504a.991.991 0 0 0 .983-.915l.818.25a4.769 4.769 0 0 0 4.656 5.754 4.777 4.777 0 0 0 4.412-2.978l5.374 1.645v.522a1 1 0 1 0 2 0V29.132a1 1 0 1 0-2 0v.522l-15.26 4.67a.991.991 0 0 0-.983-.915 1 1 0 0 0-1 1v6.886a1 1 0 0 0 1 1zM46.884 40.426a.75.75 0 1 0-.77 1.287l2.572 1.544a.75.75 0 1 0 .771-1.287l-2.573-1.544zM46.498 38.603h4.119a.75.75 0 0 0 0-1.5h-4.118a.75.75 0 0 0 0 1.5M46.884 35.278l2.573-1.544a.75.75 0 1 0-.77-1.287l-2.574 1.544a.75.75 0 1 0 .771 1.287"/>
    </g>
</svg>
