<svg xmlns="http://www.w3.org/2000/svg" xmlns:xlink="http://www.w3.org/1999/xlink" width="75" height="75" viewBox="0 0 75 75">
    <defs>
        <path id="a" d="M13 45h13V.503H0V45z"/>
    </defs>
    <g fill="none" fill-rule="evenodd">
        <circle cx="37.5" cy="37.5" r="37.5" fill="#390F92" opacity=".705"/>
        <g transform="translate(25 14.497)">
            <mask id="b" fill="#fff">
                <use xlink:href="#a"/>
            </mask>
            <path fill="#FE7338" d="M22.942 43H3.057A1.059 1.059 0 0 1 2 41.942V36.48h22v5.462A1.06 1.06 0 0 1 22.942 43zM3.057 2.503h19.885A1.06 1.06 0 0 1 24 3.561v1.274H2V3.561c0-.583.474-1.058 1.057-1.058zM2 34.981h22V6.335H2v28.646zM22.942.503H3.057A3.061 3.061 0 0 0 0 3.561v38.381A3.061 3.061 0 0 0 3.057 45h19.885A3.062 3.062 0 0 0 26 41.942V3.561A3.062 3.062 0 0 0 22.942.503z" mask="url(#b)"/>
        </g>
        <path fill="#FE7338" d="M45.03 37.847H29.056a.75.75 0 0 0 0 1.5H45.03a.75.75 0 0 0 0-1.5M41.27 41.019H29.056a.75.75 0 0 0 0 1.5H41.27a.75.75 0 0 0 0-1.5M32.259 30.43l.986 2.282H31.28l.978-2.281zm-1.345 3.17h2.698l.579 1.378h1.058l-2.51-5.744h-.928l-2.51 5.744h1.027l.586-1.377zM37.03 30.187h1.124c1.197 0 1.98.823 1.98 1.939 0 1.132-.783 1.939-1.98 1.939H37.03v-3.878zm4.155 1.939c0-1.622-1.239-2.852-3.03-2.852h-2.128v5.704h2.127c1.792 0 3.031-1.247 3.031-2.852zM44.595 35.019l2.372-5.745h-1.084l-1.711 4.384-1.72-4.384h-1.108l2.37 5.745zM38 55.047a.918.918 0 1 1 .001-1.835.918.918 0 0 1-.001 1.835m0-3.334a2.42 2.42 0 0 0-2.417 2.417A2.42 2.42 0 0 0 38 56.547a2.42 2.42 0 0 0 2.417-2.417A2.42 2.42 0 0 0 38 51.713"/>
    </g>
</svg>
