<svg xmlns="http://www.w3.org/2000/svg" xmlns:xlink="http://www.w3.org/1999/xlink" width="75" height="75" viewBox="0 0 75 75">
    <defs>
        <path id="a" d="M9.037 11.53V.763H.206V11.53h8.831z"/>
        <path id="c" d="M0 30.207h46.037V0H0z"/>
    </defs>
    <g fill="none" fill-rule="evenodd">
        <circle cx="37.5" cy="37.5" r="37.5" fill="#390F92" opacity=".705"/>
        <g transform="translate(14 22)">
            <g transform="translate(37 .207)">
                <mask id="b" fill="#fff">
                    <use xlink:href="#a"/>
                </mask>
                <path fill="#FE7338" d="M3.267 2.262h3.095a1.178 1.178 0 0 1 0 2.354H3.267V2.262zM.956 7.665a.75.75 0 0 0 0 1.5h.81v1.616a.75.75 0 0 0 1.5 0V9.165H6.58a.75.75 0 1 0 0-1.5H3.267v-1.55h3.095A2.68 2.68 0 0 0 9.038 3.44 2.68 2.68 0 0 0 6.362.762H2.517a.75.75 0 0 0-.75.75v3.104H.956a.75.75 0 1 0 0 1.5h.81v1.549h-.81z" mask="url(#b)"/>
            </g>
            <mask id="d" fill="#fff">
                <use xlink:href="#c"/>
            </mask>
            <path fill="#FE7338" d="M2 9.921h12.983V2H2v7.921zM15.983 0H1a1 1 0 0 0-1 1v9.921a1 1 0 0 0 1 1h14.983a1 1 0 0 0 1-1V1a1 1 0 0 0-1-1zM32.865 1.263h-12.96a1 1 0 1 0 0 2h12.96a1 1 0 1 0 0-2M19.904 7.103h10.674a.75.75 0 0 0 0-1.5H19.904a.75.75 0 0 0 0 1.5M19.904 10.8h10.674a.75.75 0 0 0 0-1.5H19.904a.75.75 0 0 0 0 1.5M43.361 22.013h-3.095v-2.354h3.095a1.178 1.178 0 0 1 0 2.354m0-3.854h-3.845a.75.75 0 0 0-.75.75v3.104h-.81a.75.75 0 0 0 0 1.5h.81v1.549h-.81a.75.75 0 0 0 0 1.5h.81v1.615a.75.75 0 0 0 1.5 0v-1.615h3.314a.75.75 0 0 0 0-1.5h-3.314v-1.55h3.095a2.68 2.68 0 0 0 2.676-2.676 2.68 2.68 0 0 0-2.676-2.677M2 28.207h12.983v-7.921H2v7.921zm13.983-9.921H1a1 1 0 0 0-1 1v9.921a1 1 0 0 0 1 1h14.983a1 1 0 0 0 1-1v-9.921a1 1 0 0 0-1-1zM32.865 19.549h-12.96a1 1 0 1 0 0 2h12.96a1 1 0 1 0 0-2M30.578 23.889H19.904a.75.75 0 0 0 0 1.5h10.674a.75.75 0 0 0 0-1.5M30.578 27.587H19.904a.75.75 0 0 0 0 1.5h10.674a.75.75 0 0 0 0-1.5" mask="url(#d)"/>
        </g>
    </g>
</svg>
