<svg xmlns="http://www.w3.org/2000/svg" xmlns:xlink="http://www.w3.org/1999/xlink" width="24" height="24" viewBox="0 0 24 24">
    <defs>
        <path id="a" d="M12 0H0v24h24V0z"/>
    </defs>
    <g fill="none" fill-rule="evenodd">
        <mask id="b" fill="#fff">
            <use xlink:href="#a"/>
        </mask>
        <path fill="#FFF" d="M19.436 17.125h-1.75c-.668 0-.863-.532-2.05-1.719-1.038-1.001-1.513-1.13-1.773-1.13-.352 0-.488.099-.488.599v1.57c0 .43-.107.68-1.22.68-1.854 0-3.876-1.126-5.322-3.202-2.17-3.04-2.755-5.34-2.755-5.803 0-.26.108-.495.608-.495h1.75c.447 0 .615.196.783.68.856 2.494 2.269 4.672 2.862 4.672.222 0 .294-.102.294-.667V9.733c0-1.187-.665-1.284-.665-1.706 0-.195.198-.402.476-.402h2.75c.37 0 .439.198.439.643v3.467c0 .371.191.5.303.5.222 0 .423-.129.83-.537 1.261-1.409 2.159-3.578 2.159-3.578.111-.26.324-.495.769-.495h1.75c.529 0 .64.272.529.643-.223 1.02-2.355 4.023-2.355 4.023-.185.297-.26.445 0 .78.186.259.797.778 1.205 1.26.752.846 1.319 1.559 1.476 2.05.145.494-.105.744-.605.744M15.739 0h-7.36C1.659 0 0 1.6 0 8.32v7.36C0 22.4 1.659 24 8.379 24h7.36C22.459 24 24 22.4 24 15.68V8.32C24 1.6 22.459 0 15.739 0" mask="url(#b)"/>
    </g>
</svg>
