<svg xmlns="http://www.w3.org/2000/svg" xmlns:xlink="http://www.w3.org/1999/xlink" width="60" height="60" viewBox="0 0 60 60">
    <defs>
        <path id="a" d="M46 29.312V58H0V.623h46z"/>
        <path id="c" d="M0 58.377h46V1H0z"/>
    </defs>
    <g fill="none" fill-rule="evenodd" transform="translate(14 1)">
        <g transform="translate(0 .377)">
            <mask id="b" fill="#fff">
                <use xlink:href="#a"/>
            </mask>
            <path fill="#FFF" d="M44 54.982c0 .562-.456 1.018-1.017 1.018H3.018A1.018 1.018 0 0 1 2 54.982V5.69c0-.56.456-1.018 1.018-1.018h9.399v1.55a.5.5 0 0 0 .5.5h20.167a.5.5 0 0 0 .5-.5v-1.55h9.399c.561 0 1.017.457 1.017 1.018v49.293zM32.584 1.623V2.83a.984.984 0 0 0-.493.842c0 .364.203.668.493.843v1.207H13.417V4.518c.294-.174.5-.48.5-.847a.983.983 0 0 0-.5-.846V1.623h19.167zm10.399 1.048h-9.399V1.123a.5.5 0 0 0-.5-.5H12.917a.5.5 0 0 0-.5.5v1.548H3.018A3.022 3.022 0 0 0 0 5.69v49.293A3.022 3.022 0 0 0 3.018 58h39.965A3.021 3.021 0 0 0 46 54.982V5.69a3.021 3.021 0 0 0-3.017-3.018z" mask="url(#b)"/>
        </g>
        <mask id="d" fill="#fff">
            <use xlink:href="#c"/>
        </mask>
        <path fill="#FFF" d="M6.334 15.14H9v-2.666H6.334v2.666zm-.5 1H9.5a.5.5 0 0 0 .5-.5v-3.666a.5.5 0 0 0-.5-.5H5.834a.5.5 0 0 0-.5.5v3.666a.5.5 0 0 0 .5.5zM13.167 12.932H39a.5.5 0 0 0 0-1H13.167a.5.5 0 0 0 0 1M13.167 15.682H29a.5.5 0 0 0 0-1H13.167a.5.5 0 0 0 0 1M6.334 22.89H9v-2.666H6.334v2.666zm-.5 1H9.5a.5.5 0 0 0 .5-.5v-3.666a.5.5 0 0 0-.5-.5H5.834a.5.5 0 0 0-.5.5v3.666a.5.5 0 0 0 .5.5zM13.167 20.682H39a.5.5 0 0 0 0-1H13.167a.5.5 0 0 0 0 1M13.167 23.432H29a.5.5 0 0 0 0-1H13.167a.5.5 0 0 0 0 1M39.147 32.722a.955.955 0 0 1 0-1.908.955.955 0 0 1 0 1.908m-8.073 8.997a.954.954 0 1 1 0-1.91.954.954 0 0 1 0 1.91M23 38.103a.955.955 0 1 1 0 0m-8.073 10.415a.955.955 0 0 1 0-1.908.954.954 0 1 1 0 1.908m24.22-18.704a1.957 1.957 0 0 0-1.954 1.954c0 .5.194.952.504 1.298l-3.575 5.446c-.358.547-.825.98-1.362 1.283a1.949 1.949 0 0 0-1.686-.984 1.95 1.95 0 0 0-1.739 1.079 3.904 3.904 0 0 1-1.473-1.272 4.768 4.768 0 0 0-2.98-1.966A1.953 1.953 0 0 0 23 35.195a1.957 1.957 0 0 0-1.916 2.337 5.07 5.07 0 0 0-1.587 2.068l-2.177 5.182a4.18 4.18 0 0 1-.989 1.43 1.944 1.944 0 0 0-1.404-.602c-.93 0-1.707.654-1.903 1.526a3.776 3.776 0 0 1-2.198-1.383L6.332 40.3v-8.533a.5.5 0 1 0-1 0v18.747c0 1.379 1.122 2.5 2.502 2.5h30.29a.5.5 0 1 0 0-1H7.836a1.502 1.502 0 0 1-1.502-1.5v-8.641l3.713 4.507a4.741 4.741 0 0 0 3.029 1.776 1.951 1.951 0 0 0 1.852 1.36 1.957 1.957 0 0 0 1.954-1.953 1.94 1.94 0 0 0-.06-.46 5.123 5.123 0 0 0 1.42-1.935l2.178-5.182a4.12 4.12 0 0 1 1.123-1.55c.358.405.877.666 1.458.666.895 0 1.645-.61 1.875-1.432.858.224 1.62.74 2.169 1.522a4.876 4.876 0 0 0 2.087 1.696 1.952 1.952 0 0 0 1.942 1.83 1.957 1.957 0 0 0 1.953-1.943 4.92 4.92 0 0 0 1.932-1.715l3.575-5.447c.194.065.398.108.614.108a1.957 1.957 0 0 0 1.953-1.954 1.957 1.957 0 0 0-1.953-1.954" mask="url(#d)"/>
    </g>
</svg>
