<svg xmlns="http://www.w3.org/2000/svg" xmlns:xlink="http://www.w3.org/1999/xlink" width="60" height="56" viewBox="0 0 60 56">
    <defs>
        <path id="a" d="M0 55.43h59.597V0H0z"/>
    </defs>
    <g fill="none" fill-rule="evenodd">
        <mask id="b" fill="#fff">
            <use xlink:href="#a"/>
        </mask>
        <path fill="#FFF" d="M57.537 52.992a.947.947 0 0 1-.849.504H26.643a.947.947 0 0 1-.85-.504.948.948 0 0 1 .034-.987l11.605-18.16c.007-.008.012-.018.017-.027l1.332-2.084 2.175 1.22a1.463 1.463 0 0 0 1.42 0l2.174-1.22 12.954 20.271a.948.948 0 0 1 .033.987zm-49.018.012a.954.954 0 0 1 .014-.977l9.65-15.984c.007-.008.011-.019.018-.028l5.633-9.33 3.148 1.764a1.45 1.45 0 0 0 1.42.001l3.15-1.766 3.964 6.566-11.32 17.714c-.495.775-.57 1.69-.265 2.532H9.361a.95.95 0 0 1-.842-.492zm-6.458-.012a.948.948 0 0 1 .033-.987l9.588-15.003 2.529 1.417a.49.49 0 0 0 .237.062h.003L6.876 51.026a2.85 2.85 0 0 0-.228 2.469H2.91a.947.947 0 0 1-.849-.504zM13.632 33.95c.363-.569 1.268-.568 1.63 0l.99 1.547-1.38 2.286a.482.482 0 0 0-.188-.209l-2.48-1.388 1.428-2.236zm13.233-12.285a.948.948 0 0 1 .828-.467.95.95 0 0 1 .828.467l2.53 4.19-3.122 1.752a.485.485 0 0 1-.473-.001l-3.121-1.75 2.53-4.191zm8.207-19.057v8.225h-6.896V2.609h6.896zm6.092 1.089a.73.73 0 0 1 .65.387.73.73 0 0 1-.03.757L40.543 6.76a1.712 1.712 0 0 0 0 1.86l1.243 1.917a.73.73 0 0 1 .03.756.731.731 0 0 1-.651.388h-5.125V3.697h5.125zm-.314 24.8a.951.951 0 0 1 .816-.446c.336 0 .634.162.815.446l1.547 2.42-2.125 1.192a.483.483 0 0 1-.475 0l-2.124-1.192 1.546-2.42zm18.285 22.467l-15.023-23.51a2.894 2.894 0 0 0-2.446-1.339c-.996 0-1.91.5-2.448 1.34l-2.54 3.975-6.5-10.765a2.858 2.858 0 0 0-2.002-1.341V11.8h6.896v.363c0 .267.216.484.484.484h5.608c.636 0 1.197-.334 1.502-.893a1.69 1.69 0 0 0-.07-1.747l-1.243-1.916a.742.742 0 0 1 .001-.807l1.243-1.917a1.688 1.688 0 0 0 .069-1.746 1.684 1.684 0 0 0-1.502-.893h-5.125v-.605a.483.483 0 0 0-.483-.484h-7.38V.484a.483.483 0 1 0-.967 0V19.324a2.862 2.862 0 0 0-2.002 1.341l-7.84 12.983-.472-.741a2.894 2.894 0 0 0-2.447-1.34c-.996 0-1.91.502-2.447 1.34L.462 50.965a2.868 2.868 0 0 0-.098 2.958 2.863 2.863 0 0 0 2.546 1.51h53.778c1.077 0 2.03-.565 2.546-1.51a2.864 2.864 0 0 0-.1-2.958z" mask="url(#b)"/>
    </g>
</svg>
