<svg xmlns="http://www.w3.org/2000/svg" xmlns:xlink="http://www.w3.org/1999/xlink" width="60" height="60" viewBox="0 0 60 60">
    <defs>
        <path id="a" d="M51.892.836v58.227H0V.836z"/>
    </defs>
    <g fill="none" fill-rule="evenodd">
        <g transform="translate(8 .102)">
            <mask id="b" fill="#fff">
                <use xlink:href="#a"/>
            </mask>
            <path fill="#FFF" d="M47.277 34.68l-3.513 5.445-2.201-5.396a.934.934 0 0 0-.832-.582 17.681 17.681 0 0 1-15.152-9.773.935.935 0 0 0-.838-.52h-.023l-6 .15 3.528-5.47a5.32 5.32 0 0 1 7.344-1.584l.458.296a.938.938 0 0 0 1.221-.195A49.233 49.233 0 0 1 50 3.14a49.23 49.23 0 0 1-4.944 22.803.937.937 0 0 0 .323 1.19l.314.202a5.319 5.319 0 0 1 1.584 7.343zm-17.875 7.508c-.14.059-.28.111-.417.179l.184.368-1.66 3.898.863.368 1.346-3.161.103.206a6.435 6.435 0 0 1 5.327-.186c2.604 1.076 4.228 3.784 3.948 6.585a.94.94 0 0 0 .89 1.03c2.802.129 4.915 2.394 4.915 5.27 0 .147-.006.296-.018.443H2.44a6.06 6.06 0 0 1-.565-2.559c0-3.864 3.694-6.921 7.66-5.835a.936.936 0 0 0 1.177-1.02 6.7 6.7 0 0 1-.056-.816 6.741 6.741 0 0 1 6.734-6.734c.673 0 1.329.102 1.96.294l-3.236 3.52.69.633 12.094-13.157a19.625 19.625 0 0 0 3.96 2.554l-3.456 8.12zm17.692-16.16a51.114 51.114 0 0 0 4.727-24.306A.94.94 0 0 0 50.543.9 51.103 51.103 0 0 0 30.36 15.221c-3.298-1.944-7.593-.951-9.69 2.297l-4.487 6.96a.937.937 0 0 0 .788 1.446h.024l7.185-.18a19.523 19.523 0 0 0 4.017 5.149l-7.474 8.132a8.558 8.558 0 0 0-3.332-.676c-4.676 0-8.492 3.747-8.606 8.397C4.067 46.218 0 49.974 0 54.629c0 1.394.367 2.765 1.061 3.966a.939.939 0 0 0 .81.468h43.843c.519 0 .938-.42.938-.938v-.046c.082-.438.124-.887.124-1.335 0-3.51-2.47-6.438-5.774-7.038-.048-3.275-2.063-6.308-5.137-7.578a8.312 8.312 0 0 0-5.265-.361l3.112-7.316a19.53 19.53 0 0 0 6.34 1.537l2.656 6.513a.939.939 0 0 0 1.657.154l4.489-6.96c2.062-3.198 1.256-7.436-1.76-9.668z" mask="url(#b)"/>
        </g>
        <path fill="#FFF" d="M51.66 17.76a2.54 2.54 0 1 1-4.268-2.754 2.54 2.54 0 0 1 4.268 2.754m1.264-2.11a3.48 3.48 0 0 0-6.32-1.152 3.455 3.455 0 0 0-.476 2.618 3.453 3.453 0 0 0 1.514 2.189 3.475 3.475 0 0 0 5.282-3.654"/>
    </g>
</svg>
