<svg xmlns="http://www.w3.org/2000/svg" xmlns:xlink="http://www.w3.org/1999/xlink" width="60" height="60" viewBox="0 0 60 60">
    <defs>
        <path id="a" d="M60 27.677V55.16H0V.192h60z"/>
    </defs>
    <g fill="none" fill-rule="evenodd">
        <path fill="#FFF" d="M27.098 20.508a.484.484 0 0 0-.684 0l-1.907 1.907-1.906-1.907a.484.484 0 0 0-.685.684l1.907 1.907-1.907 1.905a.484.484 0 1 0 .685.685l1.906-1.906 1.907 1.906a.485.485 0 0 0 .684 0 .485.485 0 0 0 0-.685L25.19 23.1l1.907-1.907a.484.484 0 0 0 0-.684M39.728 20.508a.484.484 0 0 0-.684 0l-1.906 1.907-1.907-1.907a.484.484 0 0 0-.684.684l1.907 1.907-1.907 1.905a.484.484 0 1 0 .684.685l1.907-1.906 1.906 1.906a.485.485 0 0 0 .684 0 .485.485 0 0 0 0-.685L37.822 23.1l1.906-1.907a.484.484 0 0 0 0-.684"/>
        <g transform="translate(0 2.776)">
            <mask id="b" fill="#fff">
                <use xlink:href="#a"/>
            </mask>
            <path fill="#FFF" d="M58.065 35.636a.947.947 0 0 1-.947.948H2.883a.948.948 0 0 1-.948-.948V3.074c0-.523.424-.947.948-.947h54.235c.523 0 .947.424.947.947v32.562zM57.118.192H2.883A2.885 2.885 0 0 0 0 3.074v32.562a2.886 2.886 0 0 0 2.883 2.883h21.81l-7.182 15.262a.968.968 0 1 0 1.752.825l7.57-16.087h2.2v11.804a.967.967 0 1 0 1.935 0V38.519h2.198l7.571 16.087a.968.968 0 0 0 1.752-.825L35.306 38.52h21.812A2.885 2.885 0 0 0 60 35.636V3.074A2.885 2.885 0 0 0 57.118.192z" mask="url(#b)"/>
        </g>
        <path fill="#FFF" d="M16.855 33.065a.968.968 0 1 1 0-1.936.968.968 0 0 1 0 1.936m.423-2.854a48.978 48.978 0 0 1-.07-1.99l-.968.015c.013.825.042 1.509.07 2.014-.801.237-1.39.97-1.39 1.847 0 1.068.868 1.936 1.935 1.936a1.937 1.937 0 0 0 1.936-1.936c0-.92-.649-1.691-1.513-1.886M44.109 11.868A.968.968 0 0 0 45 13.212c.089 0 .168-.028.25-.05-.082.022-.161.05-.25.05a.968.968 0 0 1-.891-1.344m.207-.307c-.042.042-.066.098-.1.149.034-.05.058-.107.1-.15m1.368 1.369c-.016.017-.04.025-.059.04.018-.015.043-.023.06-.04M45 14.18a1.937 1.937 0 0 0 1.935-1.935A1.937 1.937 0 0 0 45 10.309a1.938 1.938 0 0 0-1.936 1.936c0 1.067.87 1.935 1.936 1.935M18.699 16.945l-.902-.351c-.328.84-.61 1.803-.837 2.86l.947.204c.216-1.007.483-1.92.792-2.713M17.457 22.478l-.962-.108a41.478 41.478 0 0 0-.22 2.932l.967.04c.041-.995.114-1.958.215-2.864M21.774 12.074c-.947.343-1.791.97-2.503 1.864l.755.603c.6-.753 1.3-1.276 2.077-1.556l-.329-.91zM31.557 27.437c.347 1.104.715 2.011 1.125 2.772l.853-.459c-.382-.707-.726-1.559-1.056-2.604l-.922.291zM43.503 27.873l.907.337c.318-.856.581-1.824.784-2.877l-.95-.183a17.235 17.235 0 0 1-.741 2.723M24.689 12.83c.863.177 1.598.576 2.249 1.222l.682-.688a5.355 5.355 0 0 0-2.739-1.482l-.192.948zM45.28 15.034l-.23-.238-2.738 2.651.673.695 1.658-1.606.004.053.742-.051 1.616 1.67.695-.674-2.263-2.339a.302.302 0 0 0-.157-.161M40.214 32.036l.429.867c.897-.444 1.689-1.122 2.353-2.013l-.775-.578c-.573.769-1.248 1.348-2.007 1.724M44.621 22.323l.964.079c.077-.932.119-1.922.122-2.941l-.968-.004a36.022 36.022 0 0 1-.118 2.866M29.322 15.9l-.876.41c.344.739.662 1.608.971 2.66l.928-.272c-.322-1.1-.657-2.014-1.023-2.798M31.343 22.702l-.266-1.162-.944.219.266 1.158c.13.563.258 1.125.39 1.68l.941-.225c-.13-.553-.258-1.111-.387-1.67M34.647 32.585c.849.617 1.846.94 2.967.962l.02-.968c-.933-.017-1.723-.272-2.418-.777l-.57.783z"/>
    </g>
</svg>
